<?xml version="1.0" standalone="no"?>
<!DOCTYPE svg PUBLIC "-//W3C//DTD SVG 20010904//EN"
 "http://www.w3.org/TR/2001/REC-SVG-20010904/DTD/svg10.dtd">
<svg version="1.0" xmlns="http://www.w3.org/2000/svg"
 width="1216.000000pt" height="415.000000pt" viewBox="0 0 1216.000000 415.000000"
 preserveAspectRatio="xMidYMid meet">

<g transform="translate(0.000000,415.000000) scale(0.100000,-0.100000)"
fill="#000000" stroke="none">
<path d="M590 3973 c-192 -19 -352 -144 -422 -329 l-23 -59 0 -1540 0 -1540
23 -59 c59 -157 172 -263 331 -310 50 -15 529 -16 5601 -16 5045 0 5551 1
5601 16 156 46 288 178 333 334 15 50 16 209 14 1595 l-3 1540 -23 57 c-68
169 -220 284 -406 308 -66 9 -10942 12 -11026 3z m1144 -703 c51 -24 102 -77
122 -126 10 -23 14 -78 14 -179 l0 -145 -36 0 -36 0 4 148 3 149 -29 37 c-40
53 -95 76 -181 76 -38 0 -86 -5 -105 -10 -59 -16 -128 -67 -160 -117 l-30 -47
0 -183 0 -183 -35 0 -35 0 0 178 0 179 31 61 c63 127 192 196 351 188 53 -3
92 -11 122 -26z m330 -158 c56 -33 71 -65 74 -163 l4 -89 -30 0 -30 0 -4 81
c-3 74 -6 83 -31 105 -19 17 -40 24 -68 24 -38 0 -39 1 -39 36 l0 36 48 -7
c26 -3 60 -14 76 -23z m5689 8 c14 0 18 -6 15 -27 -2 -23 -9 -29 -33 -31 -63
-5 -76 -13 -91 -47 -8 -19 -14 -48 -14 -65 0 -29 1 -30 50 -30 49 0 50 -1 50
-30 0 -29 -1 -30 -50 -30 l-50 0 0 -185 0 -185 -40 0 -40 0 0 185 0 185 -30 0
c-27 0 -30 3 -30 30 0 27 3 30 30 30 25 0 30 4 30 23 0 40 29 123 49 141 26
24 91 47 116 41 11 -3 28 -5 38 -5z m-1968 -315 l0 -310 -37 -3 -38 -3 0 316
0 316 38 -3 37 -3 0 -310z m1425 -1 l0 -315 -32 3 c-29 3 -33 7 -36 34 l-3 31
-28 -27 c-80 -80 -212 -56 -271 50 -33 61 -35 175 -3 235 58 109 182 146 263
79 l30 -26 0 119 c0 66 3 123 7 126 3 4 21 7 40 7 l33 0 0 -316z m-5490 249
c0 -29 -8 -45 -31 -68 -49 -47 -69 -96 -69 -165 l0 -60 -30 0 -30 0 0 70 c0
52 6 82 21 113 20 41 115 147 131 147 4 0 8 -17 8 -37z m2088 7 c103 -45 158
-139 155 -266 -2 -128 -64 -230 -165 -274 -44 -20 -75 -24 -185 -28 l-133 -4
0 295 0 296 28 4 c15 3 77 4 137 3 89 -2 120 -7 163 -26z m515 -146 c162 -55
183 -316 32 -401 -88 -50 -182 -38 -251 31 -114 113 -70 325 77 371 59 18 86
18 142 -1z m1165 -4 c69 -31 82 -71 82 -263 l0 -158 -37 3 -38 3 -5 155 c-6
193 -14 210 -96 210 -23 0 -44 -9 -66 -29 l-33 -29 -3 -156 -3 -156 -40 0 -39
0 0 215 0 215 35 0 c34 0 35 -1 35 -37 l0 -37 16 23 c19 27 88 61 124 61 14 0
44 -9 68 -20z m685 4 c162 -55 183 -316 32 -401 -88 -50 -182 -38 -251 31
-114 113 -70 325 77 371 59 18 86 18 142 -1z m438 5 c45 -15 76 -45 88 -83 5
-17 11 -102 13 -188 l4 -158 -32 0 c-26 0 -33 5 -38 26 l-7 25 -29 -24 c-57
-49 -151 -44 -201 9 -31 33 -34 115 -6 158 24 36 94 67 168 73 57 6 59 7 59
35 0 44 -40 78 -90 78 -22 0 -56 -7 -76 -15 -33 -14 -35 -13 -43 8 -12 30 -7
34 47 51 58 18 99 19 143 5z m1407 -31 c3 -36 2 -38 -28 -38 -80 0 -94 -30
-100 -210 l-5 -145 -37 -3 -38 -3 -2 195 c-1 108 -2 204 -2 214 -1 12 8 18 32
20 26 3 32 0 32 -17 0 -46 11 -52 38 -20 28 34 57 49 87 46 15 -2 21 -11 23
-39z m317 31 c55 -15 120 -82 135 -139 37 -137 -33 -265 -160 -291 -107 -22
-205 34 -235 134 -19 64 -19 90 1 158 33 112 142 170 259 138z m483 5 c31 -6
64 -31 80 -61 9 -15 13 -13 41 14 78 79 189 64 232 -30 16 -35 19 -67 19 -199
l0 -158 -34 0 -34 0 -4 154 c-3 138 -5 158 -24 183 -16 21 -31 29 -63 31 -35
3 -46 -2 -71 -27 l-30 -29 0 -156 0 -156 -40 0 -40 0 0 150 c0 191 -12 220
-89 220 -14 0 -37 -7 -50 -16 -41 -29 -51 -72 -51 -219 l0 -135 -35 0 -35 0
-2 195 c-1 107 -2 203 -2 213 -1 12 8 18 32 20 30 3 32 1 32 -27 0 -33 14 -42
24 -16 5 15 79 54 102 55 6 0 25 -3 42 -6z m-4194 -151 c21 -82 41 -161 45
-176 5 -24 16 2 60 147 l54 176 33 0 c32 0 33 0 62 -97 70 -226 80 -257 81
-238 1 11 21 90 44 175 l43 155 37 3 c20 2 37 0 37 -5 0 -4 -30 -102 -67 -216
l-67 -208 -35 3 c-35 3 -36 3 -64 93 -15 50 -38 124 -50 166 l-22 75 -55 -168
-54 -169 -35 3 -35 3 -63 205 c-34 113 -63 208 -63 213 0 4 17 7 39 7 l38 0
37 -147z m-2053 -13 c78 -27 146 -53 150 -57 4 -5 10 -359 14 -788 3 -429 8
-789 10 -801 4 -18 -13 -30 -136 -88 -77 -36 -149 -66 -160 -66 -12 0 -391 70
-844 155 -453 85 -829 155 -835 155 -7 0 -9 186 -8 602 l3 602 830 167 c457
92 831 167 832 168 1 1 66 -21 144 -49z m3639 -1180 l0 -471 -72 3 -73 3 -3
45 -3 46 -42 -41 c-67 -64 -163 -82 -260 -49 -61 21 -139 104 -163 176 -27 77
-24 215 5 291 29 74 102 149 167 171 87 29 188 17 244 -30 l30 -26 0 176 0
176 85 0 85 0 0 -470z m-1480 420 c27 -27 35 -65 20 -101 -16 -37 -37 -49 -87
-49 -45 1 -68 16 -83 55 -12 33 -5 62 23 93 27 29 98 31 127 2z m4470 1 c66
-20 70 -28 48 -97 l-19 -61 -52 18 c-59 21 -167 25 -200 8 -47 -24 -67 -51
-67 -90 0 -58 34 -90 150 -139 178 -75 232 -132 238 -252 7 -123 -51 -214
-166 -260 -99 -38 -317 -27 -391 21 -11 7 -11 18 -1 64 18 80 19 81 75 56 59
-26 186 -37 238 -20 51 17 77 54 77 108 0 60 -39 99 -145 142 -110 45 -180 94
-213 150 -22 38 -27 58 -27 117 0 61 4 77 30 120 34 54 110 107 179 123 48 12
196 7 246 -8z m-5550 -208 c24 -115 55 -271 70 -348 l27 -140 12 60 c14 65 75
332 119 515 l27 115 87 3 c76 2 87 1 92 -15 11 -34 114 -528 126 -603 l13 -74
32 159 c18 88 52 244 76 348 l43 187 83 0 c46 0 83 -3 83 -7 -1 -5 -54 -204
-118 -443 l-117 -435 -89 0 -89 0 -58 265 c-32 146 -64 300 -71 343 l-12 78
-23 -113 c-13 -62 -49 -216 -81 -343 l-57 -230 -89 0 -89 0 -102 415 c-56 228
-104 427 -108 443 l-7 27 88 0 89 0 43 -207z m5950 52 l0 -84 73 -3 72 -3 3
-62 3 -63 -76 0 -75 0 0 -175 c0 -162 2 -177 20 -195 15 -15 33 -20 70 -20
l50 0 0 -64 0 -65 -46 -7 c-64 -9 -139 1 -179 26 -20 12 -43 40 -56 68 -21 43
-24 64 -27 240 l-4 192 -45 0 -44 0 3 63 3 62 43 3 42 3 0 69 0 69 38 10 c86
22 117 28 125 24 4 -2 7 -42 7 -88z m-4278 -87 c54 -16 112 -75 132 -133 13
-40 16 -92 16 -282 l0 -233 -79 0 -80 0 -3 218 c-3 197 -5 220 -23 252 -13 21
-35 40 -58 49 -33 12 -42 12 -81 -3 -77 -30 -80 -40 -86 -291 l-5 -220 -80 0
-80 0 -3 323 -2 322 69 0 69 0 7 -45 6 -46 29 31 c58 62 160 86 252 58z m1471
-22 c109 -53 167 -155 167 -295 0 -114 -22 -173 -90 -242 -75 -77 -143 -103
-255 -97 -132 7 -221 63 -275 173 -22 43 -25 64 -25 155 0 88 4 113 23 155 58
125 166 187 318 182 64 -3 93 -9 137 -31z m1535 19 c33 -10 52 -21 52 -31 0
-27 -22 -104 -30 -104 -4 0 -24 7 -43 15 -54 22 -132 20 -157 -5 -25 -25 -26
-62 -2 -83 10 -9 51 -30 90 -46 86 -36 119 -60 149 -109 26 -43 30 -115 9
-165 -17 -41 -73 -91 -123 -108 -47 -17 -194 -17 -248 -1 -68 20 -69 22 -54
86 7 31 15 56 18 56 3 -1 31 -9 61 -20 85 -30 167 -24 192 14 14 21 8 65 -12
84 -12 11 -53 32 -92 47 -90 36 -153 94 -163 152 -16 100 46 191 155 224 43
13 144 10 198 -6z m1937 -14 c95 -42 153 -122 175 -238 24 -135 -25 -270 -123
-340 -95 -68 -249 -83 -349 -34 -210 101 -242 426 -56 574 87 70 244 87 353
38z m645 -49 l0 -78 -50 0 c-54 0 -87 -18 -124 -68 -19 -25 -21 -44 -24 -232
l-3 -205 -82 3 -82 3 -3 323 -2 323 72 -3 73 -3 6 -60 c3 -33 6 -54 7 -46 3
26 53 81 90 101 20 10 56 19 80 20 l42 0 0 -78z m466 50 c91 -47 144 -149 144
-277 l0 -75 -216 0 -216 0 6 -32 c7 -39 31 -74 70 -102 24 -18 42 -21 134 -21
59 0 121 4 138 8 31 8 32 7 38 -30 4 -21 9 -46 12 -55 8 -28 -91 -52 -216 -53
-99 0 -109 2 -172 33 -84 41 -123 87 -150 176 -55 182 35 391 191 441 65 21
184 15 237 -13z m-6631 -307 l0 -320 -80 0 -80 0 -3 310 c-1 170 0 316 3 323
3 9 26 12 82 10 l78 -3 0 -320z m2436 200 c16 -66 38 -169 50 -230 22 -109 38
-153 40 -104 0 13 28 121 63 239 l62 215 66 3 c57 2 67 0 72 -15 24 -80 97
-348 106 -388 18 -86 21 -83 46 35 13 63 39 171 56 240 l33 125 78 3 c69 3 77
1 76 -15 0 -10 -44 -155 -97 -323 l-97 -305 -77 -3 c-43 -2 -78 0 -78 3 0 3
-24 92 -54 198 -30 105 -58 206 -62 222 -6 28 -8 25 -20 -30 -8 -33 -37 -135
-66 -227 l-51 -168 -77 0 -76 0 -92 313 c-51 171 -92 318 -92 325 0 10 20 12
82 10 l81 -3 28 -120z"/>
<path d="M6974 2856 c-92 -40 -114 -198 -39 -273 28 -28 40 -33 80 -33 40 0
52 5 81 34 33 33 34 36 34 115 0 96 -14 131 -64 155 -41 19 -51 19 -92 2z"/>
<path d="M3573 3024 c-10 -4 -13 -62 -13 -241 l0 -236 83 5 c171 9 244 94 236
270 -7 135 -73 197 -218 204 -42 2 -82 1 -88 -2z"/>
<path d="M4184 2852 c-61 -38 -83 -157 -44 -237 34 -71 104 -94 167 -55 81 49
94 194 25 271 -36 41 -102 50 -148 21z"/>
<path d="M6034 2852 c-61 -38 -83 -157 -44 -237 34 -71 104 -94 167 -55 81 49
94 194 25 271 -36 41 -102 50 -148 21z"/>
<path d="M6525 2695 c-48 -17 -65 -38 -65 -82 0 -50 32 -77 83 -70 60 8 89 43
95 111 l4 56 -38 0 c-22 -1 -57 -7 -79 -15z"/>
<path d="M8224 2860 c-89 -36 -112 -199 -39 -278 30 -33 39 -37 83 -37 58 0
85 19 113 80 61 133 -39 283 -157 235z"/>
<path d="M1750 2296 l-225 -41 -3 -164 -3 -164 62 7 c34 3 147 6 250 6 l189 0
0 200 0 200 -22 -1 c-13 0 -124 -20 -248 -43z"/>
<path d="M1288 2212 l-138 -25 0 -129 0 -128 150 0 150 0 0 155 c0 118 -3 155
-12 154 -7 -1 -75 -13 -150 -27z"/>
<path d="M1150 1752 l0 -128 118 -22 c64 -12 132 -24 150 -28 l32 -6 0 156 0
156 -150 0 -150 0 0 -128z"/>
<path d="M1520 1719 l0 -164 238 -43 c130 -23 243 -42 250 -42 9 0 12 47 12
200 l0 200 -227 0 c-126 0 -238 3 -250 6 l-23 6 0 -163z"/>
<path d="M5823 1620 c-53 -32 -78 -91 -78 -185 0 -106 26 -158 92 -187 77 -34
149 -9 185 63 25 47 25 206 1 256 -33 69 -131 96 -200 53z"/>
<path d="M6572 1633 c-19 -9 -44 -35 -60 -62 -24 -41 -27 -56 -27 -136 0 -77
3 -96 25 -133 66 -117 200 -109 257 14 21 47 25 66 21 132 -4 90 -28 146 -78
180 -39 26 -91 28 -138 5z"/>
<path d="M10050 1631 c-72 -38 -108 -173 -77 -282 44 -149 203 -175 271 -44
15 29 22 63 24 125 3 73 0 91 -20 130 -42 83 -123 112 -198 71z"/>
<path d="M11190 1649 c-35 -15 -59 -39 -81 -81 -35 -68 -35 -68 121 -68 152 0
147 -2 130 61 -20 72 -104 116 -170 88z"/>
</g>
</svg>
